# xmcd
#
# Track frame offsets: 
#        180
#        21499
#        40355
#        66795
#        90077
#        120482
#        143234
#        170072
#        185951
#        210258
#        232696
#        247460
#        272062
#        294415
#
# Disc length: 4301 seconds
#
# Revision: 1
# Processed by: cddbd v1.5.2PL0 Copyright (c) Steve Scherf et al.
# Submitted via: ExactAudioCopy v0.99pb5
#
DISCID=cd10cb0e
DTITLE=Various Artist - Hits Inmortales de la Salsa [CD 3)
DYEAR=1999
DGENRE=Salsa
TTITLE0=Mi Negra y la calentura
TTITLE1=Arrepentida
TTITLE2=Ana mile
TTITLE3=Que locura enamorarme de ti
TTITLE4=Gitana
TTITLE5=Pequeñas cosas
TTITLE6=Del puente pa'alla
TTITLE7=Che Che Cole
TTITLE8=Sin poderte hablar
TTITLE9=Invierno en primavera
TTITLE10=Casi te envidio
TTITLE11=Una aventura
TTITLE12=Lluvia
TTITLE13=Aguzate
EXTD=
EXTT0=
EXTT1=
EXTT2=
EXTT3=
EXTT4=
EXTT5=
EXTT6=
EXTT7=
EXTT8=
EXTT9=
EXTT10=
EXTT11=
EXTT12=
EXTT13=
PLAYORDER=
